<svg width="28" height="28" viewBox="0 0 28 28" fill="none" xmlns="http://www.w3.org/2000/svg">
<g id="Iconly/Broken/Hide">
<path id="Hide" fill-rule="evenodd" clip-rule="evenodd" d="M14.0001 11.1998C12.431 11.1998 11.1546 12.4551 11.1546 14.0009C11.1546 14.4568 11.2783 14.891 11.4883 15.2849L15.3056 11.5271C14.9066 11.3215 14.461 11.1998 14.0001 11.1998ZM22.616 4.32972C22.9496 4.00126 23.4898 4.00126 23.8235 4.32972C24.1571 4.65818 24.1571 5.18992 23.8235 5.51837L5.38431 23.6698C5.21748 23.834 4.99931 23.9167 4.78115 23.9167C4.56181 23.9167 4.34365 23.834 4.17681 23.6698C3.84315 23.3413 3.84315 22.8096 4.17681 22.4823L10.2388 16.5137C9.72664 15.7787 9.44781 14.9116 9.44781 14.0009C9.44781 11.5294 11.4895 9.51961 14.0001 9.51961C14.9183 9.51961 15.812 9.79754 16.5551 10.296L18.9281 7.96115C15.5821 5.81812 11.5023 6.00188 8.31497 8.486C6.63148 9.7895 5.18598 11.6913 4.12081 14.002C4.59448 15.0345 5.14515 15.9866 5.75881 16.8365C6.03181 17.2143 5.94198 17.7391 5.55814 18.0079C5.40764 18.1135 5.23498 18.1641 5.06348 18.1641C4.79631 18.1641 4.53381 18.0423 4.36698 17.8103C3.61798 16.7733 2.95648 15.603 2.40232 14.3317C2.31015 14.1203 2.31015 13.8792 2.40348 13.6678C3.59465 10.9529 5.27231 8.7042 7.25798 7.16642C11.1056 4.17008 16.1596 4.02193 20.1566 6.75182L22.616 4.32972ZM25.5967 13.6666C24.9748 12.2551 24.2328 10.978 23.3882 9.87437C23.1035 9.50342 22.5692 9.42877 22.1935 9.70784C21.8155 9.98807 21.7408 10.5141 22.0243 10.885C22.7208 11.7957 23.3438 12.842 23.8793 14.0008C21.6907 18.7439 18.0192 21.5634 14 21.5634C13.09 21.5634 12.1847 21.4175 11.3097 21.1304C10.8605 20.9869 10.3787 21.2212 10.2305 21.6622C10.0812 22.102 10.3227 22.5775 10.7695 22.7256C11.8184 23.0702 12.9057 23.2447 14 23.2447C18.8148 23.2447 23.1502 19.9131 25.5967 14.3327C25.69 14.1214 25.69 13.8791 25.5967 13.6666ZM16.7892 14.4989C16.5815 15.6358 15.6668 16.5385 14.5118 16.7441C14.0475 16.828 13.7395 17.2655 13.8235 17.7226C13.8982 18.128 14.2587 18.4117 14.6623 18.4117C14.7137 18.4117 14.765 18.4071 14.8163 18.399C16.669 18.0671 18.1378 16.6201 18.4692 14.7963C18.5532 14.3381 18.244 13.9017 17.7797 13.8201C17.3188 13.7374 16.872 14.0441 16.7892 14.4989Z" fill="white"/>
</g>
</svg>
